# This file uses centimeters as units for non-parametric coordinates.

mtllib Office2PC3button.mtl
g default
v -0.337898 -1.331447 1.811906
v 0.317247 -1.331447 1.811906
v -0.337898 1.355425 1.647367
v 0.317247 1.355425 1.647367
v -0.337898 1.355425 -1.797223
v 0.317247 1.355425 -1.797223
v -0.337898 0.174642 -1.776182
v 0.317247 0.174642 -1.776182
v -0.337898 1.355425 -1.159385
v 0.317247 1.355425 -1.159385
v 0.317247 -0.539216 -0.476864
v -0.337898 -0.539216 -0.476864
v -0.337898 1.355425 -0.500006
v 0.317247 1.355425 -0.500006
v 0.317247 -1.322964 -0.363387
v -0.337898 -1.322964 -0.363387
vt 0.375000 0.000000
vt 0.625000 0.000000
vt 0.375000 0.250000
vt 0.625000 0.250000
vt 0.375000 0.500000
vt 0.625000 0.500000
vt 0.375000 0.750000
vt 0.625000 0.750000
vt 0.375000 1.000000
vt 0.625000 1.000000
vt 0.875000 0.000000
vt 0.875000 0.250000
vt 0.125000 0.000000
vt 0.125000 0.250000
vt 0.221200 0.250000
vt 0.375000 0.403800
vt 0.625000 0.403800
vt 0.778800 0.250000
vt 0.625000 0.846200
vt 0.778800 0.000000
vt 0.221200 0.000000
vt 0.375000 0.846200
vt 0.230982 0.250000
vt 0.375000 0.394018
vt 0.625000 0.394018
vt 0.769018 0.250000
vt 0.625000 0.855982
vt 0.769018 0.000000
vt 0.230982 0.000000
vt 0.375000 0.855982
vn 0.000000 0.061124 0.998130
vn 0.000000 0.061124 0.998130
vn 0.000000 0.061124 0.998130
vn 0.000000 0.061124 0.998130
vn 0.000000 1.000000 -0.000000
vn 0.000000 1.000000 -0.000000
vn 0.000000 1.000000 -0.000000
vn 0.000000 1.000000 -0.000000
vn 0.000000 1.000000 -0.000000
vn 0.000000 1.000000 -0.000000
vn 0.000000 1.000000 -0.000000
vn 0.000000 1.000000 -0.000000
vn 0.000000 -0.017817 -0.999841
vn 0.000000 -0.017817 -0.999841
vn 0.000000 -0.017817 -0.999841
vn 0.000000 -0.017817 -0.999841
vn 0.000000 -0.876434 -0.481522
vn 0.000000 -0.876434 -0.481522
vn 0.000000 -0.686210 -0.727403
vn 0.000000 -0.686210 -0.727403
vn 1.000000 0.000000 0.000000
vn 1.000000 0.000000 0.000000
vn 1.000000 0.000000 0.000000
vn 1.000000 0.000000 0.000000
vn 1.000000 0.000000 0.000000
vn 1.000000 0.000000 0.000000
vn 1.000000 0.000000 0.000000
vn 1.000000 0.000000 0.000000
vn -1.000000 0.000000 -0.000000
vn -1.000000 0.000000 -0.000000
vn -1.000000 0.000000 -0.000000
vn -1.000000 0.000000 -0.000000
vn -1.000000 0.000000 -0.000000
vn -1.000000 0.000000 -0.000000
vn -1.000000 0.000000 -0.000000
vn -1.000000 0.000000 -0.000000
vn 0.000000 -0.944991 -0.327097
vn 0.000000 -0.944991 -0.327097
vn 0.000000 -0.999992 -0.003900
vn 0.000000 -0.999992 -0.003900
s off
g pCube26
usemtl initialShadingGroup
f 1/1/1 2/2/2 4/4/3 3/3/4
f 10/17/5 6/6/6 5/5/7 9/16/8 13/24/9 3/3/10 4/4/11 14/25/12
f 5/5/13 6/6/14 8/8/15 7/7/16
s 1
f 7/7/17 8/8/18 11/19/19 12/22/20
s off
f 11/20/21 8/11/22 6/12/23 10/18/24 14/26/25 4/4/26 2/2/27 15/28/28
f 9/15/29 5/14/30 7/13/31 12/21/32 16/29/33 1/1/34 3/3/35 13/23/36
s 1
f 12/22/20 11/19/19 15/27/37 16/30/38
f 16/30/38 15/27/37 2/10/39 1/9/40
