# This file uses centimeters as units for non-parametric coordinates.

mtllib pc_ram.mtl
g default
v 1.019169 -0.306917 0.183022
v 2.019169 -0.306917 0.183022
v 1.019169 1.249930 0.183022
v 2.019169 1.249930 0.183022
v 1.019169 1.249930 -0.038441
v 2.019169 1.249930 -0.038441
v 1.019169 -0.306917 -0.038441
v 2.019169 -0.306917 -0.038441
v 3.207258 -0.306917 0.183022
v 4.207258 -0.306917 0.183022
v 3.207258 1.249930 0.183022
v 4.207258 1.249930 0.183022
v 3.207258 1.249930 -0.038441
v 4.207258 1.249930 -0.038441
v 3.207258 -0.306917 -0.038441
v 4.207258 -0.306917 -0.038441
v -1.739898 -0.306917 0.183022
v -0.739898 -0.306917 0.183022
v -1.739898 1.249930 0.183022
v -0.739898 1.249930 0.183022
v -1.739898 1.249930 -0.038441
v -0.739898 1.249930 -0.038441
v -1.739898 -0.306917 -0.038441
v -0.739898 -0.306917 -0.038441
v -5.014410 -1.761716 0.091405
v 5.014410 -1.761716 0.091405
v -5.014410 1.761716 0.091405
v 5.014410 1.761716 0.091405
v -5.014410 1.761716 -0.183022
v 5.014410 1.761716 -0.183022
v -5.014410 -1.761716 -0.183022
v 5.014410 -1.761716 -0.183022
v -3.927986 -0.306917 0.183022
v -2.927986 -0.306917 0.183022
v -3.927986 1.249930 0.183022
v -2.927986 1.249930 0.183022
v -3.927986 1.249930 -0.038441
v -2.927986 1.249930 -0.038441
v -3.927986 -0.306917 -0.038441
v -2.927986 -0.306917 -0.038441
vt 0.153831 0.699330
vt 0.134865 0.699431
vt 0.134157 0.566103
vt 0.153123 0.566002
vt 0.153831 0.699330
vt 0.134865 0.699431
vt 0.134157 0.566103
vt 0.153123 0.566002
vt 0.195123 0.703598
vt 0.176157 0.703699
vt 0.175448 0.570371
vt 0.194414 0.570270
vt 0.153831 0.699330
vt 0.134865 0.699431
vt 0.134157 0.566103
vt 0.153123 0.566002
vt 0.153832 0.699330
vt 0.134865 0.699431
vt 0.134157 0.566103
vt 0.153123 0.566002
vt 0.153832 0.699330
vt 0.134865 0.699431
vt 0.134157 0.566103
vt 0.153123 0.566002
vt 0.255129 0.028120
vt 0.278631 0.028120
vt 0.278631 0.329869
vt 0.255129 0.329869
vt 0.255129 0.028120
vt 0.278631 0.028120
vt 0.278631 0.329869
vt 0.255129 0.329869
vt 0.195123 0.703598
vt 0.176157 0.703699
vt 0.175448 0.570371
vt 0.194414 0.570270
vt 0.153831 0.699330
vt 0.134865 0.699431
vt 0.134157 0.566103
vt 0.153123 0.566002
vt 0.143762 0.957519
vt 0.028319 0.957606
vt 0.028299 0.932040
vt 0.143743 0.931952
vt 0.143762 0.957519
vt 0.028319 0.957606
vt 0.028299 0.932040
vt 0.143743 0.931952
vt 0.143762 0.957519
vt 0.028319 0.957606
vt 0.028299 0.932040
vt 0.143743 0.931952
vt 0.143762 0.957519
vt 0.028319 0.957606
vt 0.028299 0.932040
vt 0.143743 0.931952
vt 0.143762 0.957519
vt 0.028319 0.957606
vt 0.028299 0.932040
vt 0.143743 0.931952
vt 0.143762 0.957519
vt 0.028319 0.957606
vt 0.028299 0.932040
vt 0.143743 0.931952
vt 0.222803 0.886994
vt 0.222803 0.028120
vt 0.246305 0.028120
vt 0.246305 0.886994
vt 0.222803 0.886994
vt 0.222803 0.028120
vt 0.246305 0.028120
vt 0.246305 0.886994
vt 0.143762 0.957519
vt 0.028319 0.957606
vt 0.028299 0.932040
vt 0.143743 0.931952
vt 0.143762 0.957519
vt 0.028319 0.957606
vt 0.028299 0.932040
vt 0.143743 0.931952
vt 0.023400 0.912978
vt 0.023312 0.797534
vt 0.203040 0.797398
vt 0.203128 0.912842
vt 0.023400 0.912978
vt 0.023312 0.797534
vt 0.203040 0.797398
vt 0.203128 0.912842
vt 0.023400 0.912978
vt 0.023313 0.797534
vt 0.203040 0.797398
vt 0.203128 0.912842
vt 0.023400 0.912978
vt 0.023313 0.797535
vt 0.203040 0.797398
vt 0.203128 0.912842
vt 0.023400 0.912978
vt 0.023312 0.797534
vt 0.203040 0.797398
vt 0.203128 0.912842
vt 0.023400 0.912978
vt 0.023312 0.797534
vt 0.203040 0.797398
vt 0.203128 0.912842
vt 0.294830 0.984138
vt 0.294830 0.014275
vt 0.635573 0.014275
vt 0.635573 0.984138
vt 0.649414 0.984138
vt 0.649414 0.014275
vt 0.990157 0.014275
vt 0.990157 0.984138
vt 0.023400 0.912978
vt 0.023313 0.797535
vt 0.203040 0.797398
vt 0.203128 0.912842
vt 0.023400 0.912978
vt 0.023313 0.797534
vt 0.203040 0.797398
vt 0.203128 0.912842
vn 0.000000 0.000000 1.000000
vn 0.000000 0.000000 1.000000
vn 0.000000 0.000000 1.000000
vn 0.000000 0.000000 1.000000
vn 0.000000 1.000000 0.000000
vn 0.000000 1.000000 0.000000
vn 0.000000 1.000000 0.000000
vn 0.000000 1.000000 0.000000
vn 0.000000 0.000000 -1.000000
vn 0.000000 0.000000 -1.000000
vn 0.000000 0.000000 -1.000000
vn 0.000000 0.000000 -1.000000
vn 0.000000 -1.000000 0.000000
vn 0.000000 -1.000000 0.000000
vn 0.000000 -1.000000 0.000000
vn 0.000000 -1.000000 0.000000
vn 1.000000 0.000000 0.000000
vn 1.000000 0.000000 0.000000
vn 1.000000 0.000000 0.000000
vn 1.000000 0.000000 0.000000
vn -1.000000 0.000000 0.000000
vn -1.000000 0.000000 0.000000
vn -1.000000 0.000000 0.000000
vn -1.000000 0.000000 0.000000
vn 0.000000 0.000000 1.000000
vn 0.000000 0.000000 1.000000
vn 0.000000 0.000000 1.000000
vn 0.000000 0.000000 1.000000
vn 0.000000 1.000000 0.000000
vn 0.000000 1.000000 0.000000
vn 0.000000 1.000000 0.000000
vn 0.000000 1.000000 0.000000
vn 0.000000 0.000000 -1.000000
vn 0.000000 0.000000 -1.000000
vn 0.000000 0.000000 -1.000000
vn 0.000000 0.000000 -1.000000
vn 0.000000 -1.000000 0.000000
vn 0.000000 -1.000000 0.000000
vn 0.000000 -1.000000 0.000000
vn 0.000000 -1.000000 0.000000
vn 1.000000 0.000000 0.000000
vn 1.000000 0.000000 0.000000
vn 1.000000 0.000000 0.000000
vn 1.000000 0.000000 0.000000
vn -1.000000 0.000000 0.000000
vn -1.000000 0.000000 0.000000
vn -1.000000 0.000000 0.000000
vn -1.000000 0.000000 0.000000
vn 0.000000 0.000000 1.000000
vn 0.000000 0.000000 1.000000
vn 0.000000 0.000000 1.000000
vn 0.000000 0.000000 1.000000
vn 0.000000 1.000000 0.000000
vn 0.000000 1.000000 0.000000
vn 0.000000 1.000000 0.000000
vn 0.000000 1.000000 0.000000
vn 0.000000 0.000000 -1.000000
vn 0.000000 0.000000 -1.000000
vn 0.000000 0.000000 -1.000000
vn 0.000000 0.000000 -1.000000
vn 0.000000 -1.000000 0.000000
vn 0.000000 -1.000000 0.000000
vn 0.000000 -1.000000 0.000000
vn 0.000000 -1.000000 0.000000
vn 1.000000 0.000000 0.000000
vn 1.000000 0.000000 0.000000
vn 1.000000 0.000000 0.000000
vn 1.000000 0.000000 0.000000
vn -1.000000 0.000000 0.000000
vn -1.000000 0.000000 0.000000
vn -1.000000 0.000000 0.000000
vn -1.000000 0.000000 0.000000
vn 0.000000 0.000000 1.000000
vn 0.000000 0.000000 1.000000
vn 0.000000 0.000000 1.000000
vn 0.000000 0.000000 1.000000
vn 0.000000 1.000000 0.000000
vn 0.000000 1.000000 0.000000
vn 0.000000 1.000000 0.000000
vn 0.000000 1.000000 0.000000
vn 0.000000 0.000000 -1.000000
vn 0.000000 0.000000 -1.000000
vn 0.000000 0.000000 -1.000000
vn 0.000000 0.000000 -1.000000
vn 0.000000 -1.000000 0.000000
vn 0.000000 -1.000000 0.000000
vn 0.000000 -1.000000 0.000000
vn 0.000000 -1.000000 0.000000
vn 1.000000 0.000000 0.000000
vn 1.000000 0.000000 0.000000
vn 1.000000 0.000000 0.000000
vn 1.000000 0.000000 0.000000
vn -1.000000 0.000000 0.000000
vn -1.000000 0.000000 0.000000
vn -1.000000 0.000000 0.000000
vn -1.000000 0.000000 0.000000
vn 0.000000 0.000000 1.000000
vn 0.000000 0.000000 1.000000
vn 0.000000 0.000000 1.000000
vn 0.000000 0.000000 1.000000
vn 0.000000 1.000000 0.000000
vn 0.000000 1.000000 0.000000
vn 0.000000 1.000000 0.000000
vn 0.000000 1.000000 0.000000
vn 0.000000 0.000000 -1.000000
vn 0.000000 0.000000 -1.000000
vn 0.000000 0.000000 -1.000000
vn 0.000000 0.000000 -1.000000
vn 0.000000 -1.000000 0.000000
vn 0.000000 -1.000000 0.000000
vn 0.000000 -1.000000 0.000000
vn 0.000000 -1.000000 0.000000
vn 1.000000 0.000000 0.000000
vn 1.000000 0.000000 0.000000
vn 1.000000 0.000000 0.000000
vn 1.000000 0.000000 0.000000
vn -1.000000 0.000000 0.000000
vn -1.000000 0.000000 0.000000
vn -1.000000 0.000000 0.000000
vn -1.000000 0.000000 0.000000
s off
g pc_Ram
usemtl initialShadingGroup
f 1/81/1 2/82/2 4/83/3 3/84/4
f 3/41/5 4/42/6 6/43/7 5/44/8
f 5/85/9 6/86/10 8/87/11 7/88/12
f 7/45/13 8/46/14 2/47/15 1/48/16
f 2/1/17 8/2/18 6/3/19 4/4/20
f 7/5/21 1/6/22 3/7/23 5/8/24
f 9/89/25 10/90/26 12/91/27 11/92/28
f 11/49/29 12/50/30 14/51/31 13/52/32
f 13/93/33 14/94/34 16/95/35 15/96/36
f 15/53/37 16/54/38 10/55/39 9/56/40
f 10/9/41 16/10/42 14/11/43 12/12/44
f 15/13/45 9/14/46 11/15/47 13/16/48
f 17/97/49 18/98/50 20/99/51 19/100/52
f 19/57/53 20/58/54 22/59/55 21/60/56
f 21/101/57 22/102/58 24/103/59 23/104/60
f 23/61/61 24/62/62 18/63/63 17/64/64
f 18/17/65 24/18/66 22/19/67 20/20/68
f 23/21/69 17/22/70 19/23/71 21/24/72
f 25/105/73 26/106/74 28/107/75 27/108/76
f 27/65/77 28/66/78 30/67/79 29/68/80
f 29/109/81 30/110/82 32/111/83 31/112/84
f 31/69/85 32/70/86 26/71/87 25/72/88
f 26/25/89 32/26/90 30/27/91 28/28/92
f 31/29/93 25/30/94 27/31/95 29/32/96
f 33/113/97 34/114/98 36/115/99 35/116/100
f 35/73/101 36/74/102 38/75/103 37/76/104
f 37/117/105 38/118/106 40/119/107 39/120/108
f 39/77/109 40/78/110 34/79/111 33/80/112
f 34/33/113 40/34/114 38/35/115 36/36/116
f 39/37/117 33/38/118 35/39/119 37/40/120
