# This file uses centimeters as units for non-parametric coordinates.

mtllib painting.mtl
g default
v -3.500000 0.202779 2.500000
v 3.500000 0.202779 2.500000
v -3.500000 0.500000 2.500000
v 3.500000 0.500000 2.500000
v -3.500000 0.500000 -2.500000
v 3.500000 0.500000 -2.500000
v -3.500000 0.202779 -2.500000
v 3.500000 0.202779 -2.500000
v -3.048717 0.202779 -2.177655
v 3.048717 0.202779 -2.177655
v 3.048717 0.202779 2.177655
v -3.048717 0.202779 2.177655
v -3.048717 0.413660 -2.177655
v 3.048717 0.413660 -2.177655
v 3.048717 0.413660 2.177655
v -3.048717 0.413660 2.177655
vt 0.731817 0.466909
vt 0.658025 0.023246
vt 0.033477 0.046137
vt 0.706160 0.539577
vt 0.027845 0.490846
vt 0.655822 0.492218
vt 0.027317 0.517407
vt 0.655904 0.518402
vt 0.027548 0.982223
vt 0.660980 0.980399
vt 0.731503 0.981841
vt 0.705216 0.981785
vt 0.732638 0.024696
vt 0.706351 0.024647
vt 0.067066 0.546264
vt 0.615857 0.546848
vt 0.620685 0.951865
vt 0.068140 0.953454
vt 0.079428 0.558837
vt 0.604644 0.560346
vt 0.608171 0.939381
vt 0.079497 0.939861
vt 0.732445 0.539629
vt 0.657800 0.049617
vt 0.033705 0.019762
vt 0.705528 0.466854
vn 0.000000 0.000000 1.000000
vn 0.000000 0.000000 1.000000
vn 0.000000 0.000000 1.000000
vn 0.000000 0.000000 1.000000
vn 0.000000 1.000000 0.000000
vn 0.000000 1.000000 0.000000
vn 0.000000 1.000000 0.000000
vn 0.000000 1.000000 0.000000
vn 0.000000 0.000000 -1.000000
vn 0.000000 0.000000 -1.000000
vn 0.000000 0.000000 -1.000000
vn 0.000000 0.000000 -1.000000
vn 0.000000 -1.000000 0.000000
vn 0.000000 -1.000000 0.000000
vn 0.000000 -1.000000 0.000000
vn 0.000000 -1.000000 0.000000
vn 1.000000 0.000000 0.000000
vn 1.000000 0.000000 0.000000
vn 1.000000 0.000000 0.000000
vn 1.000000 0.000000 0.000000
vn -1.000000 0.000000 0.000000
vn -1.000000 0.000000 0.000000
vn -1.000000 0.000000 0.000000
vn -1.000000 0.000000 0.000000
vn 0.000000 -1.000000 -0.000000
vn 0.000000 -1.000000 -0.000000
vn 0.000000 -1.000000 -0.000000
vn 0.000000 -1.000000 -0.000000
vn 0.000000 -1.000000 0.000000
vn 0.000000 -1.000000 0.000000
vn 0.000000 -1.000000 0.000000
vn 0.000000 -1.000000 0.000000
vn 0.000000 -1.000000 0.000000
vn 0.000000 -1.000000 0.000000
vn 0.000000 -1.000000 0.000000
vn 0.000000 -1.000000 0.000000
vn 0.000000 -1.000000 0.000000
vn 0.000000 -1.000000 0.000000
vn 0.000000 -1.000000 0.000000
vn 0.000000 -1.000000 0.000000
vn 0.000000 0.000000 1.000000
vn 0.000000 0.000000 1.000000
vn 0.000000 0.000000 1.000000
vn 0.000000 0.000000 1.000000
vn -1.000000 0.000000 0.000000
vn -1.000000 0.000000 0.000000
vn -1.000000 0.000000 0.000000
vn -1.000000 0.000000 0.000000
vn 0.000000 0.000000 -1.000000
vn 0.000000 0.000000 -1.000000
vn 0.000000 0.000000 -1.000000
vn 0.000000 0.000000 -1.000000
vn 1.000000 0.000000 0.000000
vn 1.000000 0.000000 0.000000
vn 1.000000 0.000000 0.000000
vn 1.000000 0.000000 0.000000
s off
g pCube1
usemtl initialShadingGroup
f 1/25/1 2/2/2 4/24/3 3/3/4
f 3/3/5 4/24/6 6/6/7 5/5/8
f 5/5/9 6/6/10 8/8/11 7/7/12
f 13/19/13 14/20/14 15/21/15 16/22/16
f 2/23/17 8/11/18 6/12/19 4/4/20
f 7/13/21 1/1/22 3/26/23 5/14/24
f 7/7/25 8/8/26 10/16/27 9/15/28
f 8/8/29 2/10/30 11/17/31 10/16/32
f 2/10/33 1/9/34 12/18/35 11/17/36
f 1/9/37 7/7/38 9/15/39 12/18/40
f 9/15/41 10/16/42 14/20/43 13/19/44
f 10/16/45 11/17/46 15/21/47 14/20/48
f 11/17/49 12/18/50 16/22/51 15/21/52
f 12/18/53 9/15/54 13/19/55 16/22/56
