# This file uses centimeters as units for non-parametric coordinates.

mtllib postit.mtl
g default
v -15.000000 -7.500000 15.000000
v 15.000000 -7.500000 15.000000
v -15.000000 0.000000 15.000000
v 15.000000 0.000000 15.000000
v -15.000000 7.500000 15.000000
v 15.000000 7.500000 15.000000
v -15.000000 7.500000 -15.000000
v 15.000000 7.500000 -15.000000
v -15.000000 0.000000 -15.000000
v 15.000000 0.000000 -15.000000
v -15.000000 -7.500000 -15.000000
v 15.000000 -7.500000 -15.000000
vt 0.375000 0.014224
vt 0.625000 0.014224
vt 0.375000 0.110579
vt 0.625000 0.110579
vt 0.375000 0.206933
vt 0.625000 0.206933
vt 0.375000 0.485579
vt 0.625000 0.485579
vt 0.375000 0.610579
vt 0.625000 0.610579
vt 0.375000 0.735579
vt 0.625000 0.735579
vt 0.375000 0.985579
vt 0.625000 0.985579
vt 0.875000 0.014224
vt 0.875000 0.110579
vt 0.875000 0.206933
vt 0.125000 0.014224
vt 0.125000 0.110579
vt 0.125000 0.206933
vn 0.000000 0.000000 1.000000
vn 0.000000 0.000000 1.000000
vn 0.000000 0.000000 1.000000
vn 0.000000 0.000000 1.000000
vn 0.000000 0.000000 1.000000
vn 0.000000 0.000000 1.000000
vn 0.000000 1.000000 0.000000
vn 0.000000 1.000000 0.000000
vn 0.000000 1.000000 0.000000
vn 0.000000 1.000000 0.000000
vn 0.000000 0.000000 -1.000000
vn 0.000000 0.000000 -1.000000
vn 0.000000 0.000000 -1.000000
vn 0.000000 0.000000 -1.000000
vn 0.000000 0.000000 -1.000000
vn 0.000000 0.000000 -1.000000
vn 0.000000 -1.000000 0.000000
vn 0.000000 -1.000000 0.000000
vn 0.000000 -1.000000 0.000000
vn 0.000000 -1.000000 0.000000
vn 1.000000 0.000000 0.000000
vn 1.000000 0.000000 0.000000
vn 1.000000 0.000000 0.000000
vn 1.000000 0.000000 0.000000
vn 1.000000 0.000000 0.000000
vn 1.000000 0.000000 0.000000
vn -1.000000 0.000000 0.000000
vn -1.000000 0.000000 0.000000
vn -1.000000 0.000000 0.000000
vn -1.000000 0.000000 0.000000
vn -1.000000 0.000000 0.000000
vn -1.000000 0.000000 0.000000
s 1
g pCube2
usemtl initialShadingGroup
f 1/1/1 2/2/2 4/4/3 3/3/4
f 3/3/4 4/4/3 6/6/5 5/5/6
s off
f 5/5/7 6/6/8 8/8/9 7/7/10
s 2
f 7/7/11 8/8/12 10/10/13 9/9/14
f 9/9/14 10/10/13 12/12/15 11/11/16
s off
f 11/11/17 12/12/18 2/14/19 1/13/20
s 3
f 2/2/21 12/15/22 10/16/23 4/4/24
f 4/4/24 10/16/23 8/17/25 6/6/26
s 4
f 11/18/27 1/1/28 3/3/29 9/19/30
f 9/19/30 3/3/29 5/5/31 7/20/32
