# This file uses centimeters as units for non-parametric coordinates.

mtllib USB_key.mtl
g default
v -8.511790 0.884438 -2.535143
v -8.283072 1.105520 -2.535143
v -8.123088 0.884438 -3.044477
v -8.283072 1.105520 -2.055436
v -8.677428 0.587238 -2.055435
v -8.677428 0.587238 2.055435
v -8.283072 1.105520 2.055436
v 5.465918 0.902725 -3.044477
v 5.817302 1.105520 -2.535143
v 6.038211 0.902725 -2.554828
v -8.511790 -0.884438 -2.535143
v -8.123088 -0.884438 -3.044477
v -8.283072 -1.105520 -2.535143
v 5.997242 1.105520 2.060901
v 6.223077 0.884733 2.052691
v 6.223118 0.885028 -2.049948
v 5.997242 1.105520 -2.060901
v 5.817302 -1.105520 -2.535143
v 5.447630 -0.884438 -3.044477
v 6.041658 -0.884438 -2.538701
v -8.123088 -0.884438 3.044477
v -8.511790 -0.884438 2.535143
v -8.283072 -1.105520 2.535143
v -8.283072 -1.105520 2.055436
v -8.677428 -0.587238 2.055435
v -8.677428 -0.587238 -2.055435
v -8.283072 -1.105520 -2.055436
v 5.465918 -0.902725 3.044477
v 5.817302 -1.105520 2.535143
v 6.038211 -0.902725 2.554828
v 6.223118 -0.885028 2.049948
v 5.997581 -1.105520 2.058172
v 5.997242 -1.105520 -2.060901
v 6.223118 -0.885028 -2.049948
v -8.511790 0.884438 2.535143
v -8.123088 0.884438 3.044477
v -8.283072 1.105520 2.535143
v 5.817302 1.105520 2.535143
v 5.447630 0.884438 3.044477
v 6.041658 0.884438 2.538701
v -5.134257 1.105520 -2.535143
v -5.134257 1.105520 -2.056529
v -5.134257 1.105520 2.056529
v -5.134257 1.105520 2.535143
v -5.134257 0.884438 3.044477
v -5.134257 -0.888095 3.044477
v -5.134257 -1.105520 2.535143
v -5.134257 -1.105520 2.055983
v -5.134257 -1.105520 -2.056529
v -5.134257 -1.105520 -2.535143
v -5.134257 -0.884438 -3.044477
v -5.134257 0.888095 -3.044477
v 2.523646 0.899799 -3.044477
v 2.523646 -0.884438 -3.044477
v 2.523646 -1.105520 -2.535143
v 2.523646 -1.105520 -2.060026
v 2.523646 -1.105520 2.057734
v 2.523646 -1.105520 2.535143
v 2.523646 -0.899799 3.044477
v 2.523646 0.884438 3.044477
v 2.523646 1.105520 2.535143
v 2.523646 1.105520 2.060026
v 2.523646 1.105520 -2.060026
v 2.523646 1.105520 -2.535143
v -5.134257 0.805981 -2.056529
v -5.134257 0.805981 2.056529
v 2.523646 0.805981 2.060026
v 2.523646 0.805981 -2.060026
v -13.010910 0.587238 2.055435
v -13.010910 0.449380 1.890424
v -13.010910 0.449380 -1.890424
v -13.010910 0.587238 -2.055435
v -13.010910 -0.065799 -1.890424
v -13.010910 -0.587238 -2.055435
v -13.010910 -0.065799 1.890424
v -13.010910 -0.587238 2.055435
v -9.656581 0.449380 -1.890424
v -9.656581 0.449380 1.890424
v -9.656581 -0.065799 -1.890424
v -9.656581 -0.065799 1.890424
vt 0.657903 0.364755
vt 0.682089 0.364755
vt 0.682089 0.596077
vt 0.657903 0.596077
vt 0.657903 0.335844
vt 0.657903 0.624989
vt 0.635123 0.557212
vt 0.635123 0.403621
vt 0.635123 0.335844
vt 0.635123 0.624989
vt 0.439911 0.403621
vt 0.439911 0.335844
vt 0.439911 0.624989
vt 0.439911 0.557212
vt 0.417131 0.364755
vt 0.417131 0.335844
vt 0.417131 0.624989
vt 0.417131 0.596077
vt 0.392944 0.364755
vt 0.392944 0.596077
vt 0.098134 0.362371
vt 0.121386 0.362371
vt 0.122152 0.596085
vt 0.098134 0.596085
vt 0.122321 0.335851
vt 0.145361 0.364686
vt 0.145361 0.596162
vt 0.122321 0.624996
vt 0.144842 0.335851
vt 0.340183 0.364724
vt 0.340053 0.596162
vt 0.144842 0.624996
vt 0.340573 0.335851
vt 0.363262 0.364763
vt 0.364028 0.598476
vt 0.340443 0.624996
vt 0.363093 0.335851
vt 0.387280 0.598476
vt 0.387280 0.364763
vt 0.363093 0.624996
vt 0.230553 0.823998
vt 0.230553 0.628682
vt 0.269725 0.628682
vt 0.269725 0.823998
vt 0.185566 0.824330
vt 0.185566 0.628682
vt 0.224738 0.628682
vt 0.224738 0.824330
vt 0.275541 0.823894
vt 0.293568 0.816058
vt 0.360940 0.816058
vt 0.429131 0.823894
vt 0.275541 0.628682
vt 0.293568 0.636518
vt 0.360940 0.636518
vt 0.429131 0.628682
vt 0.648033 0.817269
vt 0.648033 0.637729
vt 0.715405 0.637729
vt 0.715405 0.817269
vt 0.012566 0.993156
vt 0.012566 0.832104
vt 0.303529 0.831967
vt 0.303529 0.993293
vt 0.244044 0.259364
vt 0.048754 0.259364
vt 0.048588 0.082311
vt 0.244127 0.082311
vt 0.244018 0.332166
vt 0.048806 0.332166
vt 0.026026 0.259364
vt 0.026026 0.082311
vt 0.048546 0.002000
vt 0.244148 0.001992
vt 0.266798 0.259364
vt 0.266798 0.082311
vt 0.026026 0.332166
vt 0.266798 0.332166
vt 0.001839 0.259364
vt 0.001839 0.082311
vt 0.026026 0.006160
vt 0.266798 0.006160
vt 0.290985 0.259364
vt 0.290985 0.082311
vt 0.001839 0.328467
vt 0.290985 0.328467
vt 0.001839 0.014707
vt 0.290985 0.014284
vt 0.344049 0.259357
vt 0.321321 0.259357
vt 0.321321 0.082303
vt 0.343883 0.082303
vt 0.321321 0.332158
vt 0.344101 0.332158
vt 0.297134 0.259357
vt 0.297134 0.082303
vt 0.321321 0.006153
vt 0.343841 0.001992
vt 0.297134 0.328460
vt 0.539313 0.332158
vt 0.539365 0.259357
vt 0.297134 0.014700
vt 0.539531 0.082303
vt 0.539572 0.001992
vt 0.562093 0.259357
vt 0.562093 0.332158
vt 0.562093 0.082303
vt 0.562093 0.006153
vt 0.586280 0.328460
vt 0.586280 0.259357
vt 0.586280 0.082303
vt 0.586280 0.014277
vt 0.535886 0.628674
vt 0.535886 0.823887
vt 0.435695 0.823887
vt 0.435695 0.628674
vt 0.642056 0.628674
vt 0.642056 0.823887
vt 0.541864 0.823887
vt 0.541864 0.628674
vt 0.721812 0.817270
vt 0.721812 0.637729
vt 0.799365 0.637729
vt 0.799365 0.817270
vt 0.806388 0.817269
vt 0.806388 0.637729
vt 0.883941 0.637729
vt 0.883941 0.817269
vt 0.825963 0.247072
vt 0.594163 0.247072
vt 0.592632 0.070019
vt 0.825963 0.070019
vt 0.594641 0.316175
vt 0.825963 0.316175
vt 0.592249 0.001992
vt 0.825963 0.002415
vt 0.921468 0.564939
vt 0.689668 0.564939
vt 0.688137 0.387887
vt 0.921468 0.387887
vt 0.690146 0.634042
vt 0.921468 0.634042
vt 0.687754 0.319861
vt 0.921468 0.320282
vt 0.882297 0.998008
vt 0.882297 0.820955
vt 0.921468 0.820955
vt 0.921468 0.998008
vt 0.876632 0.820955
vt 0.876632 0.998007
vt 0.837460 0.998007
vt 0.837460 0.820955
vt 0.831795 0.820955
vt 0.831795 0.974545
vt 0.731604 0.974545
vt 0.731604 0.820955
vt 0.725939 0.827572
vt 0.725939 0.981162
vt 0.625747 0.981162
vt 0.625747 0.827572
vt 0.620082 0.905124
vt 0.552710 0.905124
vt 0.552710 0.827572
vt 0.620082 0.827572
vt 0.547045 0.905126
vt 0.479673 0.905126
vt 0.479673 0.827572
vt 0.547045 0.827572
vn -0.794951 0.000000 -0.606674
vn -0.794951 0.000000 -0.606674
vn -0.794951 0.000000 -0.606674
vn -0.794951 0.000000 -0.606674
vn -0.762938 0.642943 0.067448
vn -0.762938 0.642943 0.067448
vn -0.794295 0.607523 0.003403
vn -0.793398 0.608679 0.005390
vn -0.000660 0.922070 -0.387024
vn -0.000660 0.922070 -0.387022
vn -0.000628 0.924866 -0.380293
vn -0.000628 0.924865 -0.380295
vn 0.000000 1.000000 0.000000
vn 0.000000 1.000000 0.000000
vn 0.000000 1.000000 0.000000
vn 0.000000 1.000000 0.000000
vn -0.793398 0.608679 -0.005390
vn -0.794295 0.607523 -0.003403
vn -0.762938 0.642943 -0.067448
vn -0.762938 0.642943 -0.067448
vn 0.649169 -0.006127 -0.760620
vn 0.649169 -0.006127 -0.760620
vn 0.649169 -0.006127 -0.760620
vn 0.649169 -0.006127 -0.760620
vn 0.666007 0.707836 -0.235378
vn 0.666007 0.707836 -0.235378
vn 0.696825 0.716617 -0.029914
vn 0.697525 0.716272 -0.020326
vn -0.762939 -0.642943 0.067448
vn -0.762939 -0.642943 0.067448
vn -0.793398 -0.608679 0.005390
vn -0.794295 -0.607523 0.003403
vn 0.000000 -0.917312 -0.398169
vn 0.000000 -0.917312 -0.398169
vn 0.000000 -0.917312 -0.398169
vn 0.000000 -0.917312 -0.398169
vn 0.698881 0.714874 0.022796
vn 0.698808 0.714576 0.032386
vn 0.678561 0.688652 0.255566
vn 0.678561 0.688652 0.255566
vn 0.999171 -0.000067 -0.040721
vn 0.999198 0.000057 0.040043
vn 0.999173 0.000058 0.040664
vn 0.999202 -0.000066 -0.039950
vn 0.679141 -0.688181 -0.255295
vn 0.679141 -0.688181 -0.255295
vn 0.698926 -0.714837 -0.022602
vn 0.698869 -0.714501 -0.032721
vn -0.000660 -0.922070 0.387024
vn -0.000660 -0.922070 0.387022
vn -0.000628 -0.924866 0.380293
vn -0.000628 -0.924865 0.380295
vn -0.794951 0.000000 0.606674
vn -0.794951 0.000000 0.606674
vn -0.794951 0.000000 0.606674
vn -0.794951 0.000000 0.606674
vn -0.762938 -0.642943 -0.067448
vn -0.762938 -0.642943 -0.067448
vn -0.794295 -0.607523 -0.003403
vn -0.793398 -0.608679 -0.005390
vn 0.000000 -1.000000 0.000000
vn 0.000000 -1.000000 0.000000
vn 0.000000 -1.000000 0.000000
vn 0.000000 -1.000000 0.000000
vn 0.649169 0.006127 0.760620
vn 0.649169 0.006127 0.760620
vn 0.649169 0.006127 0.760620
vn 0.649169 0.006127 0.760620
vn 0.665617 -0.708395 0.234799
vn 0.665617 -0.708395 0.234799
vn 0.696774 -0.716676 0.029687
vn 0.697458 -0.716330 0.020593
vn 0.000000 0.917312 0.398169
vn 0.000000 0.917312 0.398169
vn 0.000000 0.917312 0.398169
vn 0.000000 0.917312 0.398169
vn 0.000000 0.000000 -1.000000
vn 0.000000 0.000000 -1.000000
vn 0.000000 0.000000 -1.000000
vn 0.000000 0.000000 -1.000000
vn 0.000000 -1.000000 0.000000
vn 0.000000 -1.000000 0.000000
vn 0.000000 0.000000 1.000000
vn 0.000000 0.000000 1.000000
vn 0.000000 0.000000 1.000000
vn 0.000000 0.000000 1.000000
vn 0.000000 1.000000 0.000000
vn 0.000000 1.000000 0.000000
vn 0.000000 1.000000 0.000000
vn 0.000000 1.000000 0.000000
vn 0.937953 0.000406 0.346763
vn 0.937953 0.000406 0.346763
vn -0.945238 0.000000 0.326381
vn -0.945238 0.000000 0.326381
vn -0.945238 0.000000 0.326381
vn -0.945238 0.000000 0.326381
vn -0.945238 0.000000 -0.326381
vn -0.945238 0.000000 -0.326381
vn -0.945238 0.000000 -0.326381
vn -0.945238 0.000000 -0.326381
vn 0.000000 -1.000000 0.000000
vn 0.000000 -1.000000 0.000000
vn 0.938250 -0.000659 -0.345958
vn 0.938250 -0.000659 -0.345958
vn 0.000000 1.000000 0.000000
vn 0.000000 1.000000 0.000000
vn 0.000000 1.000000 0.000000
vn 0.000000 1.000000 0.000000
vn -0.613981 0.635196 -0.468565
vn -0.613981 0.635196 -0.468565
vn -0.613981 0.635196 -0.468565
vn 0.512133 0.615979 -0.598573
vn 0.512133 0.615979 -0.598573
vn 0.512133 0.615979 -0.598573
vn -0.613981 -0.635196 -0.468565
vn -0.613981 -0.635196 -0.468565
vn -0.613981 -0.635196 -0.468565
vn 0.538539 -0.556693 -0.632510
vn 0.538539 -0.556693 -0.632510
vn 0.538539 -0.556693 -0.632510
vn -0.613981 -0.635196 0.468565
vn -0.613981 -0.635196 0.468565
vn -0.613981 -0.635196 0.468565
vn 0.512133 -0.615979 0.598573
vn 0.512133 -0.615979 0.598573
vn 0.512133 -0.615979 0.598573
vn -0.613981 0.635196 0.468565
vn -0.613981 0.635196 0.468565
vn -0.613981 0.635196 0.468565
vn 0.538539 0.556693 0.632510
vn 0.538539 0.556693 0.632510
vn 0.538539 0.556693 0.632510
vn 0.000000 1.000000 0.000000
vn 0.000000 1.000000 0.000000
vn 0.000000 1.000000 0.000000
vn 0.000000 1.000000 0.000000
vn 0.000000 0.917312 0.398169
vn 0.000000 0.917312 0.398169
vn 0.000000 0.000000 1.000000
vn 0.000000 0.000000 1.000000
vn -0.000547 -0.918481 0.395465
vn -0.000547 -0.918481 0.395465
vn 0.000000 -1.000000 0.000000
vn 0.000000 -1.000000 0.000000
vn 0.000000 -1.000000 0.000000
vn 0.000000 -1.000000 0.000000
vn 0.000000 -0.917312 -0.398169
vn 0.000000 -0.917312 -0.398169
vn 0.000000 0.000000 -1.000000
vn 0.000000 0.000000 -1.000000
vn -0.000547 0.918481 -0.395465
vn -0.000547 0.918481 -0.395465
vn 0.000000 0.000000 -1.000000
vn 0.000000 0.000000 -1.000000
vn 0.000000 -0.917312 -0.398169
vn 0.000000 -0.917312 -0.398169
vn 0.000000 -1.000000 0.000000
vn 0.000000 -1.000000 0.000000
vn 0.000000 -1.000000 0.000000
vn 0.000000 -1.000000 0.000000
vn -0.000436 -0.928199 0.372084
vn -0.000436 -0.928199 0.372084
vn 0.000000 0.000000 1.000000
vn 0.000000 0.000000 1.000000
vn 0.000000 0.917312 0.398169
vn 0.000000 0.917312 0.398169
vn 0.000000 1.000000 0.000000
vn 0.000000 1.000000 0.000000
vn 0.000000 1.000000 0.000000
vn 0.000000 1.000000 0.000000
vn -0.000436 0.928199 -0.372084
vn -0.000436 0.928199 -0.372084
vn 1.000000 0.000000 0.000000
vn 1.000000 0.000000 0.000000
vn 1.000000 0.000000 0.000000
vn 1.000000 0.000000 0.000000
vn 0.000457 0.000000 -1.000000
vn 0.000457 0.000000 -1.000000
vn 0.000457 0.000000 -1.000000
vn 0.000457 0.000000 -1.000000
vn -1.000000 0.000000 0.000000
vn -1.000000 0.000000 0.000000
vn -1.000000 0.000000 0.000000
vn -1.000000 0.000000 0.000000
vn 0.000457 0.000000 1.000000
vn 0.000457 0.000000 1.000000
vn 0.000457 0.000000 1.000000
vn 0.000457 0.000000 1.000000
vn -1.000000 0.000000 0.000000
vn -1.000000 0.000000 0.000000
vn -1.000000 0.000000 0.000000
vn -1.000000 0.000000 0.000000
vn -1.000000 0.000000 0.000000
vn -1.000000 0.000000 0.000000
vn -1.000000 0.000000 0.000000
vn -1.000000 0.000000 0.000000
vn -1.000000 0.000000 0.000000
vn -1.000000 0.000000 0.000000
vn -1.000000 0.000000 0.000000
vn -1.000000 0.000000 0.000000
vn -1.000000 0.000000 0.000000
vn -1.000000 0.000000 0.000000
vn -1.000000 0.000000 0.000000
vn -1.000000 0.000000 0.000000
vn -1.000000 0.000000 0.000000
vn -1.000000 0.000000 0.000000
vn -1.000000 0.000000 0.000000
vn -1.000000 0.000000 0.000000
vn 0.000000 1.000000 0.000000
vn 0.000000 1.000000 0.000000
vn 0.000000 1.000000 0.000000
vn 0.000000 1.000000 0.000000
vn 0.000000 0.000000 -1.000000
vn 0.000000 0.000000 -1.000000
vn 0.000000 0.000000 -1.000000
vn 0.000000 0.000000 -1.000000
vn 0.000000 -1.000000 0.000000
vn 0.000000 -1.000000 0.000000
vn 0.000000 -1.000000 0.000000
vn 0.000000 -1.000000 0.000000
vn 0.000000 0.000000 1.000000
vn 0.000000 0.000000 1.000000
vn 0.000000 0.000000 1.000000
vn 0.000000 0.000000 1.000000
vn 0.000000 -1.000000 0.000000
vn 0.000000 -1.000000 0.000000
vn 0.000000 -1.000000 0.000000
vn 0.000000 -1.000000 0.000000
vn 0.000000 0.000000 1.000000
vn 0.000000 0.000000 1.000000
vn 0.000000 0.000000 1.000000
vn 0.000000 0.000000 1.000000
vn 0.000000 1.000000 0.000000
vn 0.000000 1.000000 0.000000
vn 0.000000 1.000000 0.000000
vn 0.000000 1.000000 0.000000
vn 0.000000 0.000000 -1.000000
vn 0.000000 0.000000 -1.000000
vn 0.000000 0.000000 -1.000000
vn 0.000000 0.000000 -1.000000
s off
g usb_key
usemtl initialShadingGroup
f 1/1/1 3/2/2 12/3/3 11/4/4
s 1
f 2/5/5 1/1/6 5/8/7 4/9/8
s 2
f 52/110/9 41/105/10 64/107/11 53/111/12
s off
f 65/61/13 66/62/14 67/63/15 68/64/16
s 1
f 7/12/17 6/11/18 35/15/19 37/16/20
s off
f 8/21/21 10/22/22 20/23/23 19/24/24
s 3
f 10/22/25 9/25/26 17/29/27 16/26/28
s 4
f 11/4/29 13/6/30 27/10/31 26/7/32
s 5
f 50/71/33 51/79/34 54/80/35 55/72/36
s 3
f 15/30/37 14/33/38 38/37/39 40/34/40
s 6
f 16/26/41 15/30/42 31/31/43 34/27/44
s 7
f 18/28/45 20/23/46 34/27/47 33/32/48
s 8
f 46/83/49 47/75/50 58/76/51 59/84/52
s off
f 22/18/53 21/20/54 36/19/55 35/15/56
s 4
f 23/17/57 22/18/58 25/14/59 24/13/60
s 9
f 48/65/61 49/66/62 56/67/63 57/68/64
s off
f 28/38/65 30/35/66 40/34/67 39/39/68
s 7
f 30/35/69 29/40/70 32/36/71 31/31/72
s 10
f 44/90/73 45/95/74 60/96/75 61/91/76
s 11
f 51/129/77 52/130/78 53/131/79 54/132/80
s 9
f 47/75/81 48/65/61 57/68/64 58/76/82
s 12
f 45/137/83 46/138/84 59/139/85 60/140/86
s 13
f 43/89/87 44/90/88 61/91/89 62/92/90
s 6
f 31/31/43 15/30/42 40/34/91 30/35/92
s off
f 35/15/93 6/11/94 25/14/95 22/18/96
f 26/7/97 5/8/98 1/1/99 11/4/100
s 9
f 49/66/62 50/71/101 55/72/102 56/67/63
s 6
f 10/22/103 16/26/41 34/27/44 20/23/104
s 13
f 41/105/105 42/101/106 63/103/107 64/107/108
s off
f 1/1/109 2/5/110 3/2/111
s 1
f 4/9/8 5/8/7 6/11/18 7/12/17
s off
f 8/21/112 9/25/113 10/22/114
f 11/4/115 12/3/116 13/6/117
s 3
f 14/33/38 15/30/37 16/26/28 17/29/27
s off
f 18/28/118 19/24/119 20/23/120
f 21/20/121 22/18/122 23/17/123
s 4
f 24/13/60 25/14/59 26/7/32 27/10/31
s off
f 28/38/124 29/40/125 30/35/126
s 7
f 31/31/72 32/36/71 33/32/48 34/27/47
s off
f 35/15/127 36/19/128 37/16/129
f 38/37/130 39/39/131 40/34/132
s 13
f 4/100/133 42/101/106 41/105/105 2/106/134
f 4/100/133 7/94/135 43/89/87 42/101/106
f 37/93/136 44/90/88 43/89/87 7/94/135
s 10
f 37/93/137 36/99/138 45/95/74 44/90/73
s 12
f 21/141/139 46/138/84 45/137/83 36/142/140
s 8
f 21/86/141 23/78/142 47/75/50 46/83/49
s 9
f 24/69/143 48/65/61 47/75/81 23/78/144
f 24/69/143 27/70/145 49/66/62 48/65/61
f 13/77/146 50/71/101 49/66/62 27/70/145
s 5
f 13/77/147 12/85/148 51/79/34 50/71/33
s 11
f 3/133/149 52/130/78 51/129/77 12/134/150
s 2
f 3/109/151 2/106/152 41/105/10 52/110/9
s 11
f 54/132/80 53/131/79 8/135/153 19/136/154
s 5
f 55/72/36 54/80/35 19/87/155 18/81/156
s 9
f 56/67/63 55/72/102 18/81/157 33/73/158
f 57/68/64 56/67/63 33/73/158 32/74/159
f 58/76/82 57/68/64 32/74/159 29/82/160
s 8
f 59/84/52 58/76/51 29/82/161 28/88/162
s 12
f 60/140/86 59/139/85 28/143/163 39/144/164
s 10
f 61/91/76 60/96/75 39/102/165 38/97/166
s 13
f 62/92/90 61/91/89 38/97/167 14/98/168
f 63/103/107 62/92/90 14/98/168 17/104/169
f 64/107/108 63/103/107 17/104/169 9/108/170
s 2
f 53/111/12 64/107/11 9/108/171 8/112/172
s off
f 42/41/173 43/42/174 66/43/175 65/44/176
f 43/145/177 62/146/178 67/147/179 66/148/180
f 62/45/181 63/46/182 68/47/183 67/48/184
f 63/149/185 42/150/186 65/151/187 68/152/188
f 69/49/189 70/50/190 75/51/191 76/52/192
f 70/50/193 69/49/194 72/53/195 71/54/196
f 71/54/197 72/53/198 74/56/199 73/55/200
f 73/55/201 74/56/202 76/52/203 75/51/204
f 78/57/205 77/58/206 79/59/207 80/60/208
f 6/113/209 5/114/210 72/115/211 69/116/212
f 5/153/213 26/154/214 74/155/215 72/156/216
f 26/117/217 25/118/218 76/119/219 74/120/220
f 25/157/221 6/158/222 69/159/223 76/160/224
f 70/121/225 71/122/226 77/123/227 78/124/228
f 71/161/229 73/162/230 79/163/231 77/164/232
f 73/125/233 75/126/234 80/127/235 79/128/236
f 75/165/237 70/166/238 78/167/239 80/168/240
