# This file uses centimeters as units for non-parametric coordinates.

mtllib boss_safe_dial.mtl
g default
v 8.790963 1.094782 -1.404961
v 8.273515 3.166785 -1.404961
v 7.275243 5.054746 -1.404961
v 5.854157 6.648942 -1.404961
v 4.092847 7.856729 -1.404961
v 2.093678 8.607907 -1.404961
v -0.027167 8.858827 -1.404961
v -2.146434 8.594903 -1.404961
v -4.140958 7.831475 -1.404961
v -5.894824 6.612908 -1.404961
v -7.306104 5.010026 -1.404961
v -8.292781 3.115978 -1.404961
v -8.797509 1.040841 -1.404961
v -8.790959 -1.094786 -1.404961
v -8.273511 -3.166788 -1.404961
v -7.275235 -5.054748 -1.404961
v -5.854150 -6.648944 -1.404961
v -4.092843 -7.856728 -1.404961
v -2.093675 -8.607907 -1.404961
v 0.027169 -8.858827 -1.404961
v 2.146436 -8.594904 -1.404961
v 4.140958 -7.831475 -1.404961
v 5.894822 -6.612911 -1.404961
v 7.306104 -5.010027 -1.404961
v 8.292779 -3.115981 -1.404961
v 8.797509 -1.040844 -1.404961
v 8.790963 1.094782 1.404961
v 8.273515 3.166785 1.404961
v 7.275243 5.054746 1.404961
v 5.854157 6.648942 1.404961
v 4.092847 7.856729 1.404961
v 2.093678 8.607907 1.404961
v -0.027167 8.858827 1.404961
v -2.146434 8.594903 1.404961
v -4.140958 7.831475 1.404961
v -5.894824 6.612908 1.404961
v -7.306104 5.010026 1.404961
v -8.292781 3.115978 1.404961
v -8.797509 1.040841 1.404961
v -8.790959 -1.094786 1.404961
v -8.273511 -3.166788 1.404961
v -7.275235 -5.054748 1.404961
v -5.854150 -6.648944 1.404961
v -4.092843 -7.856728 1.404961
v -2.093675 -8.607907 1.404961
v 0.027169 -8.858827 1.404961
v 2.146436 -8.594904 1.404961
v 4.140958 -7.831475 1.404961
v 5.894822 -6.612911 1.404961
v 7.306104 -5.010027 1.404961
v 8.292779 -3.115981 1.404961
v 8.797509 -1.040844 1.404961
v 0.000001 -0.000002 -1.404961
v 0.000001 -0.000002 1.404961
vt 0.977446 0.000859
vt 0.977446 0.110960
vt 0.837284 0.110960
vt 0.837284 0.000859
vt 0.977446 0.221062
vt 0.837284 0.221062
vt 0.977446 0.331163
vt 0.837284 0.331163
vt 0.977446 0.441265
vt 0.837284 0.441265
vt 0.977446 0.551367
vt 0.837284 0.554688
vt 0.977446 0.664789
vt 0.837284 0.664789
vt 0.977446 0.774891
vt 0.837284 0.774891
vt 0.977446 0.884992
vt 0.837284 0.884992
vt 0.977446 0.995094
vt 0.646497 0.004646
vt 0.786659 0.114748
vt 0.646497 0.114748
vt 0.786659 0.224849
vt 0.646497 0.224849
vt 0.786659 0.334951
vt 0.646497 0.334951
vt 0.786659 0.445052
vt 0.646438 0.446719
vt 0.786599 0.556821
vt 0.646438 0.556821
vt 0.786599 0.666922
vt 0.646438 0.666922
vt 0.786599 0.777023
vt 0.646438 0.777023
vt 0.786599 0.887125
vt 0.646438 0.887125
vt 0.786599 0.997226
vt 0.448845 0.004065
vt 0.589006 0.114166
vt 0.448845 0.114166
vt 0.589006 0.224268
vt 0.448845 0.224268
vt 0.589006 0.334369
vt 0.448845 0.334369
vt 0.589006 0.444470
vt 0.448212 0.449297
vt 0.588373 0.559399
vt 0.448212 0.559399
vt 0.588373 0.669500
vt 0.448212 0.669500
vt 0.588373 0.779601
vt 0.448212 0.779601
vt 0.588373 0.889702
vt 0.448212 0.889702
vt 0.318227 0.104515
vt 0.331584 0.139735
vt 0.179874 0.170878
vt 0.296829 0.073515
vt 0.268635 0.048536
vt 0.235282 0.031031
vt 0.198708 0.022017
vt 0.161041 0.022017
vt 0.124467 0.031031
vt 0.091114 0.048536
vt 0.062920 0.073515
vt 0.041522 0.104515
vt 0.028165 0.139735
vt 0.023624 0.177128
vt 0.028165 0.214521
vt 0.041522 0.249741
vt 0.062920 0.280741
vt 0.091114 0.305719
vt 0.124467 0.323224
vt 0.161041 0.332239
vt 0.198708 0.332239
vt 0.235282 0.323224
vt 0.268635 0.305719
vt 0.296829 0.280741
vt 0.318227 0.249741
vt 0.331584 0.214521
vt 0.336124 0.177128
vt 0.335064 0.541880
vt 0.321707 0.577100
vt 0.183354 0.498237
vt 0.300309 0.608099
vt 0.272114 0.633078
vt 0.238761 0.650583
vt 0.202188 0.659597
vt 0.164520 0.659597
vt 0.127947 0.650583
vt 0.094594 0.633078
vt 0.066399 0.608099
vt 0.045002 0.577100
vt 0.031644 0.541880
vt 0.027104 0.504487
vt 0.031644 0.467093
vt 0.045002 0.431874
vt 0.066399 0.400874
vt 0.094594 0.375895
vt 0.127947 0.358390
vt 0.164520 0.349376
vt 0.202188 0.349376
vt 0.238761 0.358390
vt 0.272114 0.375895
vt 0.300309 0.400874
vt 0.321707 0.431874
vt 0.335064 0.467093
vt 0.339604 0.504487
vt 0.786599 0.446719
vt 0.646497 0.445052
vt 0.588373 0.449297
vt 0.448845 0.444470
vt 0.589006 0.004065
vt 0.646438 0.997226
vt 0.786659 0.004646
vt 0.837284 0.995094
vt 0.977446 0.554688
vt 0.837284 0.551367
vn 0.992335 0.123580 0.000000
vn 0.933925 0.357470 0.000000
vn 0.933925 0.357470 0.000000
vn 0.992335 0.123580 0.000000
vn 0.821238 0.570586 0.000000
vn 0.821238 0.570586 0.000000
vn 0.660824 0.750541 0.000000
vn 0.660824 0.750541 0.000000
vn 0.462005 0.886877 0.000000
vn 0.462005 0.886877 0.000000
vn 0.236336 0.971671 0.000000
vn 0.236336 0.971671 0.000000
vn -0.003067 0.999995 0.000000
vn -0.003067 0.999995 0.000000
vn -0.242292 0.970203 0.000000
vn -0.242292 0.970203 0.000000
vn -0.467437 0.884026 0.000000
vn -0.467437 0.884026 0.000000
vn -0.665415 0.746473 0.000000
vn -0.665415 0.746473 0.000000
vn -0.824722 0.565538 0.000000
vn -0.824722 0.565538 0.000000
vn -0.936099 0.351736 0.000000
vn -0.936099 0.351736 0.000000
vn -0.993074 0.117492 0.000000
vn -0.993074 0.117492 0.000000
vn -0.992335 -0.123581 0.000000
vn -0.992335 -0.123581 0.000000
vn -0.933924 -0.357471 0.000000
vn -0.933924 -0.357471 0.000000
vn -0.821238 -0.570586 0.000000
vn -0.821238 -0.570586 0.000000
vn -0.660824 -0.750541 0.000000
vn -0.660824 -0.750541 0.000000
vn -0.462006 -0.886877 0.000000
vn -0.462006 -0.886877 0.000000
vn -0.236337 -0.971671 0.000000
vn -0.236337 -0.971671 0.000000
vn 0.003067 -0.999995 0.000000
vn 0.003067 -0.999995 0.000000
vn 0.242292 -0.970203 0.000000
vn 0.242292 -0.970203 0.000000
vn 0.467437 -0.884026 0.000000
vn 0.467437 -0.884026 0.000000
vn 0.665415 -0.746474 0.000000
vn 0.665415 -0.746474 0.000000
vn 0.824722 -0.565538 0.000000
vn 0.824722 -0.565538 0.000000
vn 0.936099 -0.351735 0.000000
vn 0.936099 -0.351735 0.000000
vn 0.993074 -0.117492 0.000000
vn 0.993074 -0.117492 0.000000
vn 0.000000 0.000000 -1.000000
vn 0.000000 0.000000 -1.000000
vn 0.000000 0.000000 -1.000000
vn 0.000000 0.000000 -1.000000
vn 0.000000 0.000000 -1.000000
vn 0.000000 0.000000 -1.000000
vn 0.000000 0.000000 -1.000000
vn 0.000000 0.000000 -1.000000
vn 0.000000 0.000000 -1.000000
vn 0.000000 0.000000 -1.000000
vn 0.000000 0.000000 -1.000000
vn 0.000000 0.000000 -1.000000
vn -0.000000 0.000000 -1.000000
vn -0.000000 0.000000 -1.000000
vn 0.000000 0.000000 -1.000000
vn 0.000000 0.000000 -1.000000
vn 0.000000 0.000000 -1.000000
vn 0.000000 0.000000 -1.000000
vn -0.000000 0.000000 -1.000000
vn -0.000000 0.000000 -1.000000
vn 0.000000 0.000000 -1.000000
vn 0.000000 0.000000 -1.000000
vn 0.000000 0.000000 -1.000000
vn 0.000000 0.000000 -1.000000
vn 0.000000 0.000000 -1.000000
vn 0.000000 0.000000 -1.000000
vn 0.000000 0.000000 -1.000000
vn 0.000000 0.000000 1.000000
vn 0.000000 0.000000 1.000000
vn 0.000000 0.000000 1.000000
vn 0.000000 0.000000 1.000000
vn 0.000000 0.000000 1.000000
vn 0.000000 0.000000 1.000000
vn 0.000000 0.000000 1.000000
vn 0.000000 0.000000 1.000000
vn 0.000000 0.000000 1.000000
vn -0.000000 0.000000 1.000000
vn -0.000000 0.000000 1.000000
vn 0.000000 0.000000 1.000000
vn 0.000000 0.000000 1.000000
vn 0.000000 0.000000 1.000000
vn -0.000000 0.000000 1.000000
vn -0.000000 0.000000 1.000000
vn -0.000000 0.000000 1.000000
vn -0.000000 0.000000 1.000000
vn 0.000000 0.000000 1.000000
vn 0.000000 0.000000 1.000000
vn 0.000000 0.000000 1.000000
vn -0.000000 0.000000 1.000000
vn -0.000000 0.000000 1.000000
vn 0.000000 0.000000 1.000000
vn 0.000000 0.000000 1.000000
vn 0.000000 0.000000 1.000000
vn 0.000000 0.000000 1.000000
s 1
g safe_dial
usemtl lambert2SG
f 1/1/1 2/2/2 28/3/3 27/4/4
f 2/2/2 3/5/5 29/6/6 28/3/3
f 3/5/5 4/7/7 30/8/8 29/6/6
f 4/7/7 5/9/9 31/10/10 30/8/8
f 5/9/9 6/11/11 32/118/12 31/10/10
f 6/117/11 7/13/13 33/14/14 32/12/12
f 7/13/13 8/15/15 34/16/16 33/14/14
f 8/15/15 9/17/17 35/18/18 34/16/16
f 9/17/17 10/19/19 36/116/20 35/18/18
f 10/115/19 11/21/21 37/22/22 36/20/20
f 11/21/21 12/23/23 38/24/24 37/22/22
f 12/23/23 13/25/25 39/26/26 38/24/24
f 13/25/25 14/27/27 40/110/28 39/26/26
f 14/109/27 15/29/29 41/30/30 40/28/28
f 15/29/29 16/31/31 42/32/32 41/30/30
f 16/31/31 17/33/33 43/34/34 42/32/32
f 17/33/33 18/35/35 44/36/36 43/34/34
f 18/35/35 19/37/37 45/114/38 44/36/36
f 19/113/37 20/39/39 46/40/40 45/38/38
f 20/39/39 21/41/41 47/42/42 46/40/40
f 21/41/41 22/43/43 48/44/44 47/42/42
f 22/43/43 23/45/45 49/112/46 48/44/44
f 23/111/45 24/47/47 50/48/48 49/46/46
f 24/47/47 25/49/49 51/50/50 50/48/48
f 25/49/49 26/51/51 52/52/52 51/50/50
f 26/51/51 1/53/1 27/54/4 52/52/52
s 2
f 2/55/53 1/56/54 53/57/55
f 3/58/56 2/55/53 53/57/55
f 4/59/57 3/58/56 53/57/55
f 5/60/58 4/59/57 53/57/55
f 6/61/59 5/60/58 53/57/55
f 7/62/60 6/61/59 53/57/55
f 8/63/61 7/62/60 53/57/55
f 9/64/62 8/63/61 53/57/55
f 10/65/63 9/64/62 53/57/55
f 11/66/64 10/65/63 53/57/55
f 12/67/65 11/66/64 53/57/55
f 13/68/66 12/67/65 53/57/55
f 14/69/67 13/68/66 53/57/55
f 15/70/68 14/69/67 53/57/55
f 16/71/69 15/70/68 53/57/55
f 17/72/70 16/71/69 53/57/55
f 18/73/71 17/72/70 53/57/55
f 19/74/72 18/73/71 53/57/55
f 20/75/73 19/74/72 53/57/55
f 21/76/74 20/75/73 53/57/55
f 22/77/75 21/76/74 53/57/55
f 23/78/76 22/77/75 53/57/55
f 24/79/77 23/78/76 53/57/55
f 25/80/78 24/79/77 53/57/55
f 26/81/79 25/80/78 53/57/55
f 1/56/54 26/81/79 53/57/55
s 3
f 27/82/80 28/83/81 54/84/82
f 28/83/81 29/85/83 54/84/82
f 29/85/83 30/86/84 54/84/82
f 30/86/84 31/87/85 54/84/82
f 31/87/85 32/88/86 54/84/82
f 32/88/86 33/89/87 54/84/82
f 33/89/87 34/90/88 54/84/82
f 34/90/88 35/91/89 54/84/82
f 35/91/89 36/92/90 54/84/82
f 36/92/90 37/93/91 54/84/82
f 37/93/91 38/94/92 54/84/82
f 38/94/92 39/95/93 54/84/82
f 39/95/93 40/96/94 54/84/82
f 40/96/94 41/97/95 54/84/82
f 41/97/95 42/98/96 54/84/82
f 42/98/96 43/99/97 54/84/82
f 43/99/97 44/100/98 54/84/82
f 44/100/98 45/101/99 54/84/82
f 45/101/99 46/102/100 54/84/82
f 46/102/100 47/103/101 54/84/82
f 47/103/101 48/104/102 54/84/82
f 48/104/102 49/105/103 54/84/82
f 49/105/103 50/106/104 54/84/82
f 50/106/104 51/107/105 54/84/82
f 51/107/105 52/108/106 54/84/82
f 52/108/106 27/82/80 54/84/82
