# This file uses centimeters as units for non-parametric coordinates.

mtllib bookshelf_key.mtl
g default
v -0.338097 0.000000 -0.761386
v -0.484910 0.000000 -0.945484
v -0.697060 0.000000 -1.047650
v -0.932530 0.000000 -1.047650
v -1.144680 0.000000 -0.945484
v -1.291493 0.000000 -0.761387
v -1.343890 0.000000 -0.531821
v -1.291493 0.000000 -0.302255
v -1.144680 0.000000 -0.118158
v -0.982317 0.000000 -0.012605
v -0.651618 0.000000 -0.012605
v -0.484910 0.000000 -0.118158
v -0.338097 0.000000 -0.302255
v -0.285700 0.000000 -0.531821
v -0.814795 0.000000 -0.531821
v -0.991711 0.000000 1.166356
v -0.862099 0.000000 1.292718
v -0.738635 0.000000 1.154248
v -0.991711 0.000000 1.104687
v -0.862099 0.000000 1.104687
v -0.739224 0.000000 1.104687
v -0.703276 0.000000 1.106743
v -0.991711 0.000000 0.945354
v -0.862099 0.000000 0.945354
v -0.751314 0.000000 0.945354
v -0.664178 0.000000 0.945354
v -0.991711 0.000000 0.728626
v -0.862099 0.000000 0.728626
v -0.751314 0.000000 0.728626
v -0.734678 0.000000 0.728626
v -0.991711 0.000000 0.650312
v -0.862099 0.000000 0.650312
v -0.751314 0.000000 0.650312
v -0.692311 0.000000 0.650312
v -0.991711 0.000000 0.379133
v -0.862099 0.000000 0.379133
v -0.751314 0.000000 0.379133
v -0.705064 0.000000 0.384509
v -0.991711 0.000000 0.297859
v -0.862099 0.000000 0.297859
v -0.751314 0.000000 0.297859
v -0.656142 0.000000 0.297859
v -0.877476 0.000000 -0.008167
v -0.745265 0.000000 -0.008167
v -0.991711 0.000000 1.048278
v -0.862099 0.000000 1.048278
v -0.736990 0.000000 1.049476
v -0.991711 0.000000 0.879050
v -0.862099 0.000000 0.879050
v -0.749247 0.000000 0.883701
v -0.708843 0.000000 0.882667
v -0.991711 0.000000 0.833923
v -0.862099 0.000000 0.833923
v -0.751314 0.000000 0.833923
v -0.667704 0.000000 0.829126
v -0.991711 0.000000 0.560988
v -0.862099 0.000000 0.560988
v -0.751314 0.000000 0.560988
v -0.991711 0.000000 0.435934
v -0.862099 0.000000 0.435934
v -0.751314 0.000000 0.435934
v -0.681097 0.000000 0.434187
v -0.338097 0.063448 -0.761386
v -0.484910 0.063448 -0.945484
v -0.814795 0.063448 -0.531821
v -0.697060 0.063448 -1.047650
v -0.932530 0.063448 -1.047650
v -1.144680 0.063448 -0.945484
v -1.291493 0.063448 -0.761387
v -1.343890 0.063448 -0.531821
v -1.291493 0.063448 -0.302255
v -1.144680 0.063448 -0.118158
v -0.982317 0.063448 -0.012605
v -0.745265 0.063448 -0.008167
v -0.651618 0.063448 -0.012605
v -0.484910 0.063448 -0.118158
v -0.338097 0.063448 -0.302255
v -0.285700 0.063448 -0.531821
v -0.991711 0.063448 1.166356
v -0.862099 0.063448 1.292718
v -0.862099 0.063448 1.104687
v -0.991711 0.063448 1.104687
v -0.738635 0.063448 1.154248
v -0.739224 0.063448 1.104687
v -0.703276 0.063448 1.106743
v -0.991711 0.063448 1.048278
v -0.862099 0.063448 1.048278
v -0.862099 0.063448 0.945354
v -0.991711 0.063448 0.945354
v -0.736990 0.063448 1.049476
v -0.751314 0.063448 0.945354
v -0.664178 0.063448 0.945354
v -0.991711 0.063448 0.833923
v -0.862099 0.063448 0.833923
v -0.862099 0.063448 0.728626
v -0.991711 0.063448 0.728626
v -0.751314 0.063448 0.833923
v -0.751314 0.063448 0.728626
v -0.667704 0.063448 0.829126
v -0.734678 0.063448 0.728626
v -0.862099 0.063448 0.650312
v -0.991711 0.063448 0.650312
v -0.751314 0.063448 0.650312
v -0.692311 0.063448 0.650312
v -0.991711 0.063448 0.435934
v -0.862099 0.063448 0.435934
v -0.862099 0.063448 0.379133
v -0.991711 0.063448 0.379133
v -0.751314 0.063448 0.435934
v -0.751314 0.063448 0.379133
v -0.681097 0.063448 0.434187
v -0.705064 0.063448 0.384509
v -0.862099 0.063448 0.297859
v -0.991711 0.063448 0.297859
v -0.751314 0.063448 0.297859
v -0.656142 0.063448 0.297859
v -0.877476 0.063448 -0.008167
v -0.862099 0.063448 0.879050
v -0.991711 0.063448 0.879050
v -0.749247 0.063448 0.883701
v -0.708843 0.063448 0.882667
v -0.862099 0.063448 0.560988
v -0.991711 0.063448 0.560988
v -0.751314 0.063448 0.560988
vt 0.923312 0.843760
vt 0.923312 0.749676
vt 0.957251 0.749676
vt 0.957251 0.843760
vt 0.923312 0.655593
vt 0.957251 0.655593
vt 0.923312 0.919210
vt 0.957251 0.919210
vt 0.923312 0.580143
vt 0.957251 0.580143
vt 0.923312 0.536884
vt 0.957251 0.536884
vt 0.923312 0.409646
vt 0.957251 0.409646
vt 0.923312 0.376337
vt 0.957251 0.376337
vt 0.923312 0.353058
vt 0.957251 0.353058
vt 0.923312 0.301806
vt 0.957251 0.301806
vt 0.923312 0.265198
vt 0.957251 0.265198
vt 0.923312 0.233103
vt 0.957251 0.233103
vt 0.923312 0.189948
vt 0.957251 0.189948
vt 0.923312 0.171453
vt 0.957251 0.171453
vt 0.923312 0.144280
vt 0.957251 0.144280
vt 0.923312 0.102098
vt 0.957251 0.102098
vt 0.923312 0.078980
vt 0.957251 0.078980
vt 0.923312 0.053706
vt 0.957251 0.053706
vt 0.923312 0.001918
vt 0.957251 0.001918
vt 0.882555 0.265535
vt 0.882555 0.171452
vt 0.916493 0.171452
vt 0.916493 0.265535
vt 0.882555 0.077368
vt 0.916493 0.077368
vt 0.882555 0.340985
vt 0.916493 0.340985
vt 0.882555 0.001918
vt 0.916493 0.001918
vt 0.882555 0.384244
vt 0.916493 0.384244
vt 0.882555 0.511482
vt 0.916493 0.511482
vt 0.882555 0.546995
vt 0.916493 0.546995
vt 0.882555 0.567354
vt 0.916493 0.567354
vt 0.882555 0.619322
vt 0.916493 0.619322
vt 0.882555 0.655930
vt 0.916493 0.655930
vt 0.882555 0.688025
vt 0.916493 0.688025
vt 0.882555 0.729214
vt 0.916493 0.729214
vt 0.882555 0.751157
vt 0.916493 0.751157
vt 0.882555 0.776848
vt 0.916493 0.776848
vt 0.882555 0.819521
vt 0.916493 0.819521
vt 0.882555 0.842991
vt 0.916493 0.842991
vt 0.882555 0.862460
vt 0.916493 0.862460
vt 0.882555 0.919210
vt 0.916493 0.919210
vt 0.414200 0.843760
vt 0.354032 0.919210
vt 0.218833 0.749676
vt 0.267085 0.961081
vt 0.435674 0.749676
vt 0.170582 0.961081
vt 0.414200 0.655593
vt 0.083635 0.919210
vt 0.354031 0.580143
vt 0.023466 0.843760
vt 0.285709 0.536884
vt 0.001992 0.749677
vt 0.247329 0.535065
vt 0.023466 0.655593
vt 0.193145 0.535065
vt 0.244850 0.409646
vt 0.283854 0.409646
vt 0.083635 0.580143
vt 0.150177 0.536884
vt 0.199447 0.409646
vt 0.244850 0.376337
vt 0.263805 0.374133
vt 0.146327 0.409646
vt 0.199447 0.376337
vt 0.244850 0.353058
vt 0.273627 0.353774
vt 0.146327 0.376337
vt 0.199447 0.353058
vt 0.244850 0.301806
vt 0.146327 0.353058
vt 0.199447 0.301806
vt 0.146327 0.301806
vt 0.199447 0.265198
vt 0.244850 0.265198
vt 0.146327 0.265198
vt 0.199447 0.233103
vt 0.244850 0.233103
vt 0.269031 0.265198
vt 0.146327 0.233103
vt 0.199447 0.189948
vt 0.244850 0.189948
vt 0.251668 0.233103
vt 0.146327 0.189948
vt 0.199447 0.171453
vt 0.245697 0.169547
vt 0.279116 0.191914
vt 0.146327 0.171453
vt 0.199447 0.144280
vt 0.244850 0.144280
vt 0.262256 0.169971
vt 0.146327 0.144280
vt 0.199447 0.102098
vt 0.250720 0.101607
vt 0.280561 0.144280
vt 0.146327 0.102098
vt 0.199447 0.078980
vt 0.249805 0.078980
vt 0.146327 0.078980
vt 0.199447 0.001918
vt 0.250046 0.058668
vt 0.264538 0.078137
vt 0.146327 0.053706
vt 0.463849 0.843760
vt 0.659216 0.749676
vt 0.524018 0.919210
vt 0.442375 0.749676
vt 0.610965 0.961081
vt 0.463849 0.655593
vt 0.707468 0.961081
vt 0.524018 0.580143
vt 0.794415 0.919210
vt 0.592341 0.536884
vt 0.854584 0.843760
vt 0.630721 0.535065
vt 0.876058 0.749677
vt 0.633200 0.409645
vt 0.594195 0.409645
vt 0.684905 0.535065
vt 0.854584 0.655593
vt 0.678603 0.409645
vt 0.633200 0.376337
vt 0.614245 0.374133
vt 0.727873 0.536884
vt 0.794415 0.580143
vt 0.678603 0.376337
vt 0.731723 0.409645
vt 0.633200 0.353058
vt 0.604423 0.353774
vt 0.678603 0.353058
vt 0.731723 0.376337
vt 0.633200 0.301806
vt 0.678603 0.301806
vt 0.731723 0.353058
vt 0.633200 0.265198
vt 0.678603 0.265198
vt 0.731723 0.301806
vt 0.609018 0.265198
vt 0.633200 0.233103
vt 0.678603 0.233103
vt 0.731723 0.265198
vt 0.626382 0.233103
vt 0.633200 0.189948
vt 0.678603 0.189948
vt 0.731723 0.233103
vt 0.598934 0.191914
vt 0.632353 0.169547
vt 0.678603 0.171453
vt 0.731723 0.189948
vt 0.615794 0.169971
vt 0.633200 0.144280
vt 0.678603 0.144280
vt 0.731723 0.171453
vt 0.597489 0.144280
vt 0.627330 0.101607
vt 0.678603 0.102098
vt 0.731723 0.144280
vt 0.628245 0.078980
vt 0.678603 0.078980
vt 0.731723 0.102098
vt 0.613512 0.078137
vt 0.628003 0.058668
vt 0.678603 0.001918
vt 0.731723 0.078980
vt 0.731723 0.053706
vt 0.998008 0.001918
vt 0.998008 0.088865
vt 0.964069 0.088865
vt 0.964069 0.001918
vt 0.998008 0.185368
vt 0.964069 0.185368
vt 0.998008 0.272315
vt 0.964069 0.272315
vn -0.000000 1.000000 0.000000
vn -0.000000 1.000000 0.000000
vn -0.000000 1.000000 0.000000
vn -0.000000 1.000000 0.000000
vn 0.000000 1.000000 0.000000
vn 0.000000 1.000000 0.000000
vn 0.000000 1.000000 0.000000
vn 0.000000 1.000000 0.000000
vn 0.000000 1.000000 0.000000
vn 0.000000 1.000000 -0.000000
vn 0.000000 1.000000 -0.000000
vn -0.000000 1.000000 -0.000000
vn -0.000000 1.000000 -0.000000
vn -0.000000 1.000000 -0.000000
vn -0.000000 1.000000 0.000000
vn -0.000000 1.000000 0.000000
vn -0.000000 1.000000 -0.000000
vn -0.000000 1.000000 -0.000000
vn -0.000000 1.000000 -0.000000
vn -0.000000 1.000000 -0.000000
vn -0.000000 1.000000 -0.000000
vn -0.000000 1.000000 -0.000000
vn 0.000000 1.000000 -0.000000
vn 0.000000 1.000000 0.000000
vn 0.000000 1.000000 0.000000
vn 0.000000 1.000000 -0.000000
vn 0.000000 1.000000 0.000000
vn 0.000000 1.000000 0.000000
vn 0.000000 1.000000 -0.000000
vn 0.000000 1.000000 -0.000000
vn 0.000000 1.000000 0.000000
vn 0.000000 1.000000 0.000000
vn 0.000000 1.000000 -0.000000
vn 0.000000 1.000000 -0.000000
vn 0.000000 1.000000 0.000000
vn 0.000000 1.000000 0.000000
vn 0.000000 1.000000 -0.000000
vn 0.000000 1.000000 0.000000
vn 0.000000 1.000000 -0.000000
vn 0.000000 1.000000 -0.000000
vn 0.000000 1.000000 0.000000
vn 0.000000 1.000000 0.000000
vn 0.000000 1.000000 0.000000
vn 0.000000 1.000000 0.000000
vn 0.000000 1.000000 0.000000
vn 0.000000 1.000000 0.000000
vn 0.000000 1.000000 0.000000
vn 0.000000 1.000000 0.000000
vn 0.000000 1.000000 0.000000
vn 0.000000 1.000000 0.000000
vn 0.000000 1.000000 -0.000000
vn 0.000000 1.000000 -0.000000
vn 0.000000 1.000000 -0.000000
vn 0.000000 1.000000 -0.000000
vn 0.000000 1.000000 -0.000000
vn 0.000000 1.000000 -0.000000
vn 0.000000 1.000000 -0.000000
vn 0.000000 1.000000 -0.000000
vn 0.000000 1.000000 0.000000
vn 0.000000 1.000000 0.000000
vn 0.000000 1.000000 -0.000000
vn 0.000000 1.000000 -0.000000
vn 0.000000 1.000000 0.000000
vn 0.000000 1.000000 0.000000
vn 0.000000 1.000000 0.000000
vn 0.000000 1.000000 -0.000000
vn 0.000000 -1.000000 0.000000
vn 0.000000 -1.000000 0.000000
vn 0.000000 -1.000000 0.000000
vn 0.000000 -1.000000 0.000000
vn 0.000000 -1.000000 0.000000
vn 0.000000 -1.000000 0.000000
vn 0.000000 -1.000000 0.000000
vn 0.000000 -1.000000 0.000000
vn 0.000000 -1.000000 0.000000
vn 0.000000 -1.000000 0.000000
vn 0.000000 -1.000000 0.000000
vn 0.000000 -1.000000 0.000000
vn 0.000000 -1.000000 0.000000
vn 0.000000 -1.000000 0.000000
vn 0.000000 -1.000000 0.000000
vn 0.000000 -1.000000 0.000000
vn 0.000000 -1.000000 0.000000
vn 0.000000 -1.000000 0.000000
vn 0.000000 -1.000000 0.000000
vn 0.000000 -1.000000 0.000000
vn 0.000000 -1.000000 0.000000
vn 0.000000 -1.000000 0.000000
vn 0.000000 -1.000000 0.000000
vn 0.000000 -1.000000 0.000000
vn 0.000000 -1.000000 0.000000
vn 0.000000 -1.000000 0.000000
vn 0.000000 -1.000000 0.000000
vn 0.000000 -1.000000 0.000000
vn 0.000000 -1.000000 0.000000
vn 0.000000 -1.000000 0.000000
vn 0.000000 -1.000000 0.000000
vn 0.000000 -1.000000 0.000000
vn 0.000000 -1.000000 0.000000
vn 0.000000 -1.000000 0.000000
vn 0.000000 -1.000000 0.000000
vn 0.000000 -1.000000 0.000000
vn 0.000000 -1.000000 0.000000
vn 0.000000 -1.000000 0.000000
vn 0.000000 -1.000000 0.000000
vn 0.000000 -1.000000 0.000000
vn 0.000000 -1.000000 0.000000
vn 0.000000 -1.000000 0.000000
vn 0.000000 -1.000000 0.000000
vn 0.000000 -1.000000 0.000000
vn 0.000000 -1.000000 0.000000
vn 0.000000 -1.000000 0.000000
vn 0.000000 -1.000000 0.000000
vn 0.000000 -1.000000 0.000000
vn 0.000000 -1.000000 0.000000
vn 0.000000 -1.000000 0.000000
vn 0.000000 -1.000000 0.000000
vn 0.000000 -1.000000 0.000000
vn 0.000000 -1.000000 0.000000
vn 0.000000 -1.000000 0.000000
vn 0.000000 -1.000000 0.000000
vn 0.000000 -1.000000 0.000000
vn 0.000000 -1.000000 0.000000
vn 0.000000 -1.000000 0.000000
vn 0.000000 -1.000000 0.000000
vn 0.000000 -1.000000 0.000000
vn 0.000000 -1.000000 0.000000
vn 0.000000 -1.000000 0.000000
vn 0.000000 -1.000000 0.000000
vn 0.000000 -1.000000 0.000000
vn 0.000000 -1.000000 0.000000
vn 0.000000 -1.000000 0.000000
vn 0.900969 0.000000 -0.433884
vn 0.623490 0.000000 -0.781831
vn 0.623490 0.000000 -0.781831
vn 0.900969 0.000000 -0.433884
vn 0.222521 0.000000 -0.974928
vn 0.222521 0.000000 -0.974928
vn -0.222521 0.000000 -0.974928
vn -0.222521 0.000000 -0.974928
vn -0.623490 0.000000 -0.781832
vn -0.623490 0.000000 -0.781832
vn -0.900969 0.000000 -0.433884
vn -0.900969 0.000000 -0.433884
vn -1.000000 0.000000 -0.000000
vn -1.000000 0.000000 -0.000000
vn -0.900969 0.000000 0.433884
vn -0.900969 0.000000 0.433884
vn -0.683687 0.000000 0.729775
vn -0.683687 0.000000 0.729775
vn -0.545049 0.000000 0.838404
vn -0.545049 0.000000 0.838404
vn 0.534947 0.000000 0.844886
vn 0.678591 0.000000 0.734516
vn 0.678591 0.000000 0.734516
vn 0.534947 0.000000 0.844886
vn 0.900969 0.000000 0.433884
vn 0.900969 0.000000 0.433884
vn 1.000000 0.000000 0.000000
vn 1.000000 0.000000 0.000000
vn -0.698069 0.000000 0.716030
vn -0.698069 0.000000 0.716030
vn -0.698069 0.000000 0.716030
vn -0.698069 0.000000 0.716030
vn -1.000000 0.000000 0.000000
vn -1.000000 0.000000 0.000000
vn -1.000000 0.000000 0.000000
vn -1.000000 0.000000 0.000000
vn 0.746393 0.000000 0.665506
vn 0.760435 0.000000 0.649414
vn 0.760435 0.000000 0.649414
vn 0.746393 0.000000 0.665506
vn 0.802179 0.000000 0.597084
vn 0.802179 0.000000 0.597084
vn -1.000000 0.000000 0.000000
vn -1.000000 0.000000 0.000000
vn -1.000000 0.000000 0.000000
vn -1.000000 0.000000 0.000000
vn 0.819501 0.000000 0.573077
vn 0.819501 0.000000 0.573077
vn 0.819501 0.000000 0.573077
vn 0.819501 0.000000 0.573077
vn -1.000000 0.000000 0.000000
vn -1.000000 0.000000 0.000000
vn -1.000000 0.000000 0.000000
vn -1.000000 0.000000 0.000000
vn 0.832153 0.000000 -0.554547
vn 0.832153 0.000000 -0.554547
vn 0.832153 0.000000 -0.554547
vn 0.832153 0.000000 -0.554547
vn -1.000000 0.000000 0.000000
vn -1.000000 0.000000 0.000000
vn 0.879540 0.000000 0.475825
vn 0.879540 0.000000 0.475825
vn 0.879540 0.000000 0.475825
vn 0.879540 0.000000 0.475825
vn -1.000000 0.000000 0.000000
vn -1.000000 0.000000 0.000000
vn -1.000000 0.000000 0.000000
vn -1.000000 0.000000 0.000000
vn 0.900661 0.000000 -0.434523
vn 0.900661 0.000000 -0.434523
vn 0.900661 0.000000 -0.434523
vn 0.900661 0.000000 -0.434523
vn -0.999713 0.000000 -0.023974
vn -0.999713 0.000000 -0.023974
vn 0.870797 0.000000 0.491642
vn 0.991065 0.000000 0.133384
vn 0.991065 0.000000 0.133384
vn 0.870797 0.000000 0.491642
vn -0.999543 0.000000 -0.030245
vn -0.999543 0.000000 -0.030245
vn 0.999894 0.000000 0.014571
vn 0.999894 0.000000 0.014571
vn 0.861749 0.000000 -0.507336
vn 0.861749 0.000000 -0.507336
vn 0.861749 0.000000 -0.507336
vn 0.861749 0.000000 -0.507336
vn -1.000000 0.000000 0.000000
vn -1.000000 0.000000 0.000000
vn 0.814415 0.000000 -0.580283
vn 0.814415 0.000000 -0.580283
vn 0.814415 0.000000 -0.580283
vn 0.814415 0.000000 -0.580283
vn 0.792961 0.000000 0.609273
vn 0.792961 0.000000 0.609273
vn 0.792961 0.000000 0.609273
vn 0.792961 0.000000 0.609273
vn -1.000000 0.000000 0.000000
vn -1.000000 0.000000 0.000000
vn 0.834399 0.000000 -0.551161
vn 0.834399 0.000000 -0.551161
vn 0.834399 0.000000 -0.551161
vn 0.834399 0.000000 -0.551161
vn 0.874825 0.000000 0.484438
vn 0.874825 0.000000 0.484438
vn 0.874825 0.000000 0.484438
vn 0.874825 0.000000 0.484438
s 1
g pCylinder5
usemtl initialShadingGroup
f 63/77/1 64/78/2 65/79/3
f 64/78/2 66/80/4 65/79/3
f 66/80/4 67/82/5 65/79/3
f 67/82/5 68/84/6 65/79/3
f 68/84/6 69/86/7 65/79/3
f 69/86/7 70/88/8 65/79/3
f 70/88/8 71/90/9 65/79/3
f 71/90/9 72/94/10 65/79/3
f 72/94/10 73/95/11 65/79/3
f 65/79/3 74/89/12 75/87/13
f 75/87/13 76/85/14 65/79/3
f 76/85/14 77/83/15 65/79/3
f 77/83/15 78/81/16 65/79/3
f 78/81/16 63/77/1 65/79/3
s 3
f 79/138/17 80/135/18 81/132/19 82/134/20
f 81/132/19 80/135/18 83/136/21 84/133/22
f 83/136/21 85/137/23 84/133/22
f 86/131/24 87/128/25 88/124/26 89/127/27
f 88/124/26 87/128/25 90/129/28 91/125/29
f 90/129/28 92/130/30 91/125/29
f 93/119/31 94/116/32 95/112/33 96/115/34
f 95/112/33 94/116/32 97/117/35 98/113/36
f 97/117/35 99/122/37 100/118/38 98/113/36
f 96/115/34 95/112/33 101/109/39 102/111/40
f 101/109/39 95/112/33 98/113/36 103/110/41
f 98/113/36 100/118/38 104/114/42 103/110/41
f 105/106/43 106/104/44 107/100/45 108/103/46
f 107/100/45 106/104/44 109/101/47 110/97/48
f 109/101/47 111/102/49 112/98/50 110/97/48
f 108/103/46 107/100/45 113/96/51 114/99/52
f 113/96/51 107/100/45 110/97/48 115/92/53
f 110/97/48 112/98/50 116/93/54 115/92/53
f 114/99/52 113/96/51 117/91/55 73/95/56
f 117/91/55 113/96/51 115/92/53 74/89/57
f 115/92/53 116/93/54 75/87/58 74/89/57
f 82/134/20 81/132/19 87/128/25 86/131/24
f 90/129/28 87/128/25 81/132/19 84/133/22
f 84/133/22 85/137/23 90/129/28
f 89/127/27 88/124/26 118/120/59 119/123/60
f 120/121/61 118/120/59 88/124/26 91/125/29
f 91/125/29 92/130/30 121/126/62 120/121/61
f 119/123/60 118/120/59 94/116/32 93/119/31
f 97/117/35 94/116/32 118/120/59 120/121/61
f 120/121/61 121/126/62 99/122/37 97/117/35
f 102/111/40 101/109/39 122/107/63 123/108/64
f 124/105/65 122/107/63 101/109/39 103/110/41
f 103/110/41 104/114/42 124/105/65
f 123/108/64 122/107/63 106/104/44 105/106/43
f 109/101/47 106/104/44 122/107/63 124/105/65
f 124/105/65 111/102/49 109/101/47
s 1
f 73/95/11 117/91/66 65/79/3
f 65/79/3 117/91/66 74/89/12
s 6
f 1/139/67 15/140/68 2/141/69
f 2/141/69 15/140/68 3/143/70
f 3/143/70 15/140/68 4/145/71
f 4/145/71 15/140/68 5/147/72
f 5/147/72 15/140/68 6/149/73
f 6/149/73 15/140/68 7/151/74
f 7/151/74 15/140/68 8/155/75
f 8/155/75 15/140/68 9/160/76
f 9/160/76 15/140/68 10/159/77
f 15/140/68 11/148/78 44/150/79
f 11/148/78 15/140/68 12/146/80
f 12/146/80 15/140/68 13/144/81
f 13/144/81 15/140/68 14/142/82
f 14/142/82 15/140/68 1/139/67
s 8
f 16/200/83 19/199/84 20/194/85 17/198/86
f 20/194/85 21/193/87 18/197/88 17/198/86
f 18/197/88 21/193/87 22/196/89
f 45/195/90 23/192/91 24/187/92 46/191/93
f 24/187/92 25/186/94 47/190/95 46/191/93
f 47/190/95 25/186/94 26/189/96
f 52/184/97 27/180/98 28/175/99 53/179/100
f 28/175/99 29/174/101 54/178/102 53/179/100
f 54/178/102 29/174/101 30/177/103 55/181/104
f 27/180/98 31/176/105 32/171/106 28/175/99
f 32/171/106 33/170/107 29/174/101 28/175/99
f 29/174/101 33/170/107 34/173/108 30/177/103
f 59/169/109 35/166/110 36/161/111 60/165/112
f 36/161/111 37/157/113 61/163/114 60/165/112
f 61/163/114 37/157/113 38/158/115 62/164/116
f 35/166/110 39/162/117 40/156/118 36/161/111
f 40/156/118 41/152/119 37/157/113 36/161/111
f 37/157/113 41/152/119 42/153/120 38/158/115
f 39/162/117 10/159/121 43/154/122 40/156/118
f 43/154/122 44/150/123 41/152/119 40/156/118
f 41/152/119 44/150/123 11/148/124 42/153/120
f 19/199/84 45/195/90 46/191/93 20/194/85
f 47/190/95 21/193/87 20/194/85 46/191/93
f 21/193/87 47/190/95 22/196/89
f 23/192/91 48/188/125 49/183/126 24/187/92
f 50/182/127 25/186/94 24/187/92 49/183/126
f 25/186/94 50/182/127 51/185/128 26/189/96
f 48/188/125 52/184/97 53/179/100 49/183/126
f 54/178/102 50/182/127 49/183/126 53/179/100
f 50/182/127 54/178/102 55/181/104 51/185/128
f 31/176/105 56/172/129 57/168/130 32/171/106
f 58/167/131 33/170/107 32/171/106 57/168/130
f 33/170/107 58/167/131 34/173/108
f 56/172/129 59/169/109 60/165/112 57/168/130
f 61/163/114 58/167/131 57/168/130 60/165/112
f 58/167/131 61/163/114 62/164/116
s 6
f 10/159/77 15/140/68 43/154/132
f 15/140/68 44/150/79 43/154/132
s 12
f 1/43/133 2/47/134 64/48/135 63/44/136
f 2/201/134 3/202/137 66/203/138 64/204/135
f 3/202/137 4/205/139 67/206/140 66/203/138
f 4/205/139 5/207/141 68/208/142 67/206/140
f 5/7/141 6/1/143 69/4/144 68/8/142
f 6/1/143 7/2/145 70/3/146 69/4/144
f 7/2/145 8/5/147 71/6/148 70/3/146
f 8/5/147 9/9/149 72/10/150 71/6/148
f 9/9/149 10/11/151 73/12/152 72/10/150
f 11/49/153 12/45/154 76/46/155 75/50/156
f 12/45/154 13/39/157 77/42/158 76/46/155
f 13/39/157 14/40/159 78/41/160 77/42/158
f 14/40/159 1/43/133 63/44/136 78/41/160
s off
f 16/35/161 17/37/162 80/38/163 79/36/164
s 14
f 19/33/165 16/35/166 79/36/167 82/34/168
s 15
f 17/75/169 18/73/170 83/74/171 80/76/172
f 18/73/170 22/71/173 85/72/174 83/74/171
s 14
f 23/29/175 45/31/176 86/32/177 89/30/178
s off
f 47/69/179 26/67/180 92/68/181 90/70/182
s 14
f 27/23/183 52/25/184 93/26/185 96/24/186
s off
f 55/63/187 30/61/188 100/62/189 99/64/190
s 14
f 31/21/191 27/23/183 96/24/186 102/22/192
s off
f 30/61/193 34/59/194 104/60/195 100/62/196
s 14
f 35/15/197 59/17/198 105/18/199 108/16/200
s off
f 62/55/201 38/53/202 112/54/203 111/56/204
s 14
f 39/13/205 35/15/197 108/16/200 114/14/206
s 18
f 38/53/207 42/51/208 116/52/209 112/54/210
s 14
f 10/11/211 39/13/205 114/14/206 73/12/212
s 18
f 42/51/208 11/49/213 75/50/214 116/52/209
s 14
f 45/31/176 19/33/165 82/34/168 86/32/177
s off
f 22/71/215 47/69/216 90/70/217 85/72/218
s 14
f 48/27/219 23/29/175 89/30/178 119/28/220
s off
f 26/67/221 51/65/222 121/66/223 92/68/224
s 14
f 52/25/184 48/27/219 119/28/220 93/26/185
s off
f 51/65/225 55/63/226 99/64/227 121/66/228
s 14
f 56/19/229 31/21/191 102/22/192 123/20/230
s off
f 34/59/231 58/57/232 124/58/233 104/60/234
s 14
f 59/17/198 56/19/229 123/20/230 105/18/199
s off
f 58/57/235 62/55/236 111/56/237 124/58/238
